<?xml version="1.0" encoding="utf-8"?><svg version="1.1" id="Layer_1" xmlns="http://www.w3.org/2000/svg" xmlns:xlink="http://www.w3.org/1999/xlink" x="0px" y="0px" viewBox="0 0 122.88 95.64" style="enable-background:new 0 0 122.88 95.64" xml:space="preserve"><style type="text/css">.st0{fill-rule:evenodd;clip-rule:evenodd;}</style><g><path class="st0" d="M44.08,0.05h41.04l7.26,12.93L76.72,24.23c-4.12-2.41-8.91-3.79-14.02-3.79c-15.34,0-27.78,12.44-27.78,27.78 c0,1.93,0.2,3.81,0.57,5.62L0,79.33l0-60.77c0-1.02,0.84-1.86,1.86-1.86c10.33,0,20.66,0,30.99,0c2.42-4.77,4.84-9.55,7.26-14.32 C41.58-0.53,40.77,0.05,44.08,0.05L44.08,0.05z M107.92,16.7h5.83c1.02,0,1.86,0.86,1.86,1.86v64.99c0,1-0.86,1.86-1.86,1.86H12.26 L40.6,65.05C45.68,71.71,53.69,76,62.7,76c15.34,0,27.78-12.44,27.78-27.78c0-5.77-1.76-11.12-4.77-15.57l22.07-15.85 C107.83,16.77,107.87,16.74,107.92,16.7L107.92,16.7z M76.8,39.05c1.72,2.64,2.72,5.79,2.72,9.17c0,9.29-7.53,16.82-16.82,16.82 c-5.35,0-10.11-2.5-13.19-6.38L76.8,39.05L76.8,39.05z"/><polygon points="10.04,95.64 2.98,85.83 115.82,6.15 122.88,15.96 10.04,95.64"/></g></svg>